<mxfile host="app.diagrams.net" modified="2024-07-01T17:10:06.817Z" agent="Mozilla/5.0 (Windows NT 10.0; Win64; x64) AppleWebKit/537.36 (KHTML, like Gecko) Chrome/123.0.0.0 Safari/537.36 OPR/109.0.0.0 (Edition std-1)" version="24.6.4" etag="k2le_0xl2dmDoruvH96V" type="github">
  <diagram name="PÃ¡gina-1" id="_cV0T1i3OmXKMTnOFM7o">
    <mxGraphModel>
      <root>
        <mxCell id="0" />
        <mxCell id="1" parent="0" />
      </root>
    </mxGraphModel>
  </diagram>
</mxfile>
